%TF.GenerationSoftware,KiCad,Pcbnew,8.0.9-8.0.9-0~ubuntu20.04.1*%
%TF.CreationDate,2025-05-17T12:19:42+02:00*%
%TF.ProjectId,Buch_ESP32_1_Kap9_ESP_Standard,42756368-5f45-4535-9033-325f315f4b61,rev?*%
%TF.SameCoordinates,Original*%
%TF.FileFunction,Legend,Top*%
%TF.FilePolarity,Positive*%
%FSLAX46Y46*%
G04 Gerber Fmt 4.6, Leading zero omitted, Abs format (unit mm)*
G04 Created by KiCad (PCBNEW 8.0.9-8.0.9-0~ubuntu20.04.1) date 2025-05-17 12:19:42*
%MOMM*%
%LPD*%
G01*
G04 APERTURE LIST*
%ADD10C,0.150000*%
%ADD11C,0.177800*%
%ADD12C,0.000000*%
%ADD13C,0.120000*%
G04 APERTURE END LIST*
D10*
X137496779Y-106041819D02*
X137496779Y-105041819D01*
X137496779Y-105041819D02*
X137734874Y-105041819D01*
X137734874Y-105041819D02*
X137877731Y-105089438D01*
X137877731Y-105089438D02*
X137972969Y-105184676D01*
X137972969Y-105184676D02*
X138020588Y-105279914D01*
X138020588Y-105279914D02*
X138068207Y-105470390D01*
X138068207Y-105470390D02*
X138068207Y-105613247D01*
X138068207Y-105613247D02*
X138020588Y-105803723D01*
X138020588Y-105803723D02*
X137972969Y-105898961D01*
X137972969Y-105898961D02*
X137877731Y-105994200D01*
X137877731Y-105994200D02*
X137734874Y-106041819D01*
X137734874Y-106041819D02*
X137496779Y-106041819D01*
X138972969Y-105041819D02*
X138496779Y-105041819D01*
X138496779Y-105041819D02*
X138449160Y-105518009D01*
X138449160Y-105518009D02*
X138496779Y-105470390D01*
X138496779Y-105470390D02*
X138592017Y-105422771D01*
X138592017Y-105422771D02*
X138830112Y-105422771D01*
X138830112Y-105422771D02*
X138925350Y-105470390D01*
X138925350Y-105470390D02*
X138972969Y-105518009D01*
X138972969Y-105518009D02*
X139020588Y-105613247D01*
X139020588Y-105613247D02*
X139020588Y-105851342D01*
X139020588Y-105851342D02*
X138972969Y-105946580D01*
X138972969Y-105946580D02*
X138925350Y-105994200D01*
X138925350Y-105994200D02*
X138830112Y-106041819D01*
X138830112Y-106041819D02*
X138592017Y-106041819D01*
X138592017Y-106041819D02*
X138496779Y-105994200D01*
X138496779Y-105994200D02*
X138449160Y-105946580D01*
X153349438Y-127663411D02*
X153301819Y-127758649D01*
X153301819Y-127758649D02*
X153301819Y-127901506D01*
X153301819Y-127901506D02*
X153349438Y-128044363D01*
X153349438Y-128044363D02*
X153444676Y-128139601D01*
X153444676Y-128139601D02*
X153539914Y-128187220D01*
X153539914Y-128187220D02*
X153730390Y-128234839D01*
X153730390Y-128234839D02*
X153873247Y-128234839D01*
X153873247Y-128234839D02*
X154063723Y-128187220D01*
X154063723Y-128187220D02*
X154158961Y-128139601D01*
X154158961Y-128139601D02*
X154254200Y-128044363D01*
X154254200Y-128044363D02*
X154301819Y-127901506D01*
X154301819Y-127901506D02*
X154301819Y-127806268D01*
X154301819Y-127806268D02*
X154254200Y-127663411D01*
X154254200Y-127663411D02*
X154206580Y-127615792D01*
X154206580Y-127615792D02*
X153873247Y-127615792D01*
X153873247Y-127615792D02*
X153873247Y-127806268D01*
X154301819Y-127187220D02*
X153301819Y-127187220D01*
X153301819Y-127187220D02*
X154301819Y-126615792D01*
X154301819Y-126615792D02*
X153301819Y-126615792D01*
X154301819Y-126139601D02*
X153301819Y-126139601D01*
X153301819Y-126139601D02*
X153301819Y-125901506D01*
X153301819Y-125901506D02*
X153349438Y-125758649D01*
X153349438Y-125758649D02*
X153444676Y-125663411D01*
X153444676Y-125663411D02*
X153539914Y-125615792D01*
X153539914Y-125615792D02*
X153730390Y-125568173D01*
X153730390Y-125568173D02*
X153873247Y-125568173D01*
X153873247Y-125568173D02*
X154063723Y-125615792D01*
X154063723Y-125615792D02*
X154158961Y-125663411D01*
X154158961Y-125663411D02*
X154254200Y-125758649D01*
X154254200Y-125758649D02*
X154301819Y-125901506D01*
X154301819Y-125901506D02*
X154301819Y-126139601D01*
X149221819Y-128187220D02*
X148221819Y-128187220D01*
X148221819Y-128187220D02*
X148221819Y-127949125D01*
X148221819Y-127949125D02*
X148269438Y-127806268D01*
X148269438Y-127806268D02*
X148364676Y-127711030D01*
X148364676Y-127711030D02*
X148459914Y-127663411D01*
X148459914Y-127663411D02*
X148650390Y-127615792D01*
X148650390Y-127615792D02*
X148793247Y-127615792D01*
X148793247Y-127615792D02*
X148983723Y-127663411D01*
X148983723Y-127663411D02*
X149078961Y-127711030D01*
X149078961Y-127711030D02*
X149174200Y-127806268D01*
X149174200Y-127806268D02*
X149221819Y-127949125D01*
X149221819Y-127949125D02*
X149221819Y-128187220D01*
X148840866Y-127187220D02*
X148840866Y-126425316D01*
X137496779Y-100961819D02*
X137496779Y-99961819D01*
X137496779Y-99961819D02*
X137734874Y-99961819D01*
X137734874Y-99961819D02*
X137877731Y-100009438D01*
X137877731Y-100009438D02*
X137972969Y-100104676D01*
X137972969Y-100104676D02*
X138020588Y-100199914D01*
X138020588Y-100199914D02*
X138068207Y-100390390D01*
X138068207Y-100390390D02*
X138068207Y-100533247D01*
X138068207Y-100533247D02*
X138020588Y-100723723D01*
X138020588Y-100723723D02*
X137972969Y-100818961D01*
X137972969Y-100818961D02*
X137877731Y-100914200D01*
X137877731Y-100914200D02*
X137734874Y-100961819D01*
X137734874Y-100961819D02*
X137496779Y-100961819D01*
X138401541Y-99961819D02*
X139020588Y-99961819D01*
X139020588Y-99961819D02*
X138687255Y-100342771D01*
X138687255Y-100342771D02*
X138830112Y-100342771D01*
X138830112Y-100342771D02*
X138925350Y-100390390D01*
X138925350Y-100390390D02*
X138972969Y-100438009D01*
X138972969Y-100438009D02*
X139020588Y-100533247D01*
X139020588Y-100533247D02*
X139020588Y-100771342D01*
X139020588Y-100771342D02*
X138972969Y-100866580D01*
X138972969Y-100866580D02*
X138925350Y-100914200D01*
X138925350Y-100914200D02*
X138830112Y-100961819D01*
X138830112Y-100961819D02*
X138544398Y-100961819D01*
X138544398Y-100961819D02*
X138449160Y-100914200D01*
X138449160Y-100914200D02*
X138401541Y-100866580D01*
D11*
X150945258Y-111771373D02*
X150469068Y-111771373D01*
X150469068Y-111771373D02*
X150421449Y-112247563D01*
X150421449Y-112247563D02*
X150469068Y-112199944D01*
X150469068Y-112199944D02*
X150564306Y-112152325D01*
X150564306Y-112152325D02*
X150802401Y-112152325D01*
X150802401Y-112152325D02*
X150897639Y-112199944D01*
X150897639Y-112199944D02*
X150945258Y-112247563D01*
X150945258Y-112247563D02*
X150992877Y-112342801D01*
X150992877Y-112342801D02*
X150992877Y-112580896D01*
X150992877Y-112580896D02*
X150945258Y-112676134D01*
X150945258Y-112676134D02*
X150897639Y-112723754D01*
X150897639Y-112723754D02*
X150802401Y-112771373D01*
X150802401Y-112771373D02*
X150564306Y-112771373D01*
X150564306Y-112771373D02*
X150469068Y-112723754D01*
X150469068Y-112723754D02*
X150421449Y-112676134D01*
X151897639Y-111771373D02*
X151421449Y-111771373D01*
X151421449Y-111771373D02*
X151373830Y-112247563D01*
X151373830Y-112247563D02*
X151421449Y-112199944D01*
X151421449Y-112199944D02*
X151516687Y-112152325D01*
X151516687Y-112152325D02*
X151754782Y-112152325D01*
X151754782Y-112152325D02*
X151850020Y-112199944D01*
X151850020Y-112199944D02*
X151897639Y-112247563D01*
X151897639Y-112247563D02*
X151945258Y-112342801D01*
X151945258Y-112342801D02*
X151945258Y-112580896D01*
X151945258Y-112580896D02*
X151897639Y-112676134D01*
X151897639Y-112676134D02*
X151850020Y-112723754D01*
X151850020Y-112723754D02*
X151754782Y-112771373D01*
X151754782Y-112771373D02*
X151516687Y-112771373D01*
X151516687Y-112771373D02*
X151421449Y-112723754D01*
X151421449Y-112723754D02*
X151373830Y-112676134D01*
X152850020Y-111771373D02*
X152373830Y-111771373D01*
X152373830Y-111771373D02*
X152326211Y-112247563D01*
X152326211Y-112247563D02*
X152373830Y-112199944D01*
X152373830Y-112199944D02*
X152469068Y-112152325D01*
X152469068Y-112152325D02*
X152707163Y-112152325D01*
X152707163Y-112152325D02*
X152802401Y-112199944D01*
X152802401Y-112199944D02*
X152850020Y-112247563D01*
X152850020Y-112247563D02*
X152897639Y-112342801D01*
X152897639Y-112342801D02*
X152897639Y-112580896D01*
X152897639Y-112580896D02*
X152850020Y-112676134D01*
X152850020Y-112676134D02*
X152802401Y-112723754D01*
X152802401Y-112723754D02*
X152707163Y-112771373D01*
X152707163Y-112771373D02*
X152469068Y-112771373D01*
X152469068Y-112771373D02*
X152373830Y-112723754D01*
X152373830Y-112723754D02*
X152326211Y-112676134D01*
X153183354Y-111771373D02*
X153754782Y-111771373D01*
X153469068Y-112771373D02*
X153469068Y-111771373D01*
X154469068Y-112723754D02*
X154373830Y-112771373D01*
X154373830Y-112771373D02*
X154183354Y-112771373D01*
X154183354Y-112771373D02*
X154088116Y-112723754D01*
X154088116Y-112723754D02*
X154040497Y-112628515D01*
X154040497Y-112628515D02*
X154040497Y-112247563D01*
X154040497Y-112247563D02*
X154088116Y-112152325D01*
X154088116Y-112152325D02*
X154183354Y-112104706D01*
X154183354Y-112104706D02*
X154373830Y-112104706D01*
X154373830Y-112104706D02*
X154469068Y-112152325D01*
X154469068Y-112152325D02*
X154516687Y-112247563D01*
X154516687Y-112247563D02*
X154516687Y-112342801D01*
X154516687Y-112342801D02*
X154040497Y-112438039D01*
X155373830Y-112723754D02*
X155278592Y-112771373D01*
X155278592Y-112771373D02*
X155088116Y-112771373D01*
X155088116Y-112771373D02*
X154992878Y-112723754D01*
X154992878Y-112723754D02*
X154945259Y-112676134D01*
X154945259Y-112676134D02*
X154897640Y-112580896D01*
X154897640Y-112580896D02*
X154897640Y-112295182D01*
X154897640Y-112295182D02*
X154945259Y-112199944D01*
X154945259Y-112199944D02*
X154992878Y-112152325D01*
X154992878Y-112152325D02*
X155088116Y-112104706D01*
X155088116Y-112104706D02*
X155278592Y-112104706D01*
X155278592Y-112104706D02*
X155373830Y-112152325D01*
X155802402Y-112771373D02*
X155802402Y-111771373D01*
X156230973Y-112771373D02*
X156230973Y-112247563D01*
X156230973Y-112247563D02*
X156183354Y-112152325D01*
X156183354Y-112152325D02*
X156088116Y-112104706D01*
X156088116Y-112104706D02*
X155945259Y-112104706D01*
X155945259Y-112104706D02*
X155850021Y-112152325D01*
X155850021Y-112152325D02*
X155802402Y-112199944D01*
X157183354Y-112771373D02*
X156707164Y-112771373D01*
X156707164Y-112771373D02*
X156707164Y-111771373D01*
X157945259Y-112771373D02*
X157945259Y-112247563D01*
X157945259Y-112247563D02*
X157897640Y-112152325D01*
X157897640Y-112152325D02*
X157802402Y-112104706D01*
X157802402Y-112104706D02*
X157611926Y-112104706D01*
X157611926Y-112104706D02*
X157516688Y-112152325D01*
X157945259Y-112723754D02*
X157850021Y-112771373D01*
X157850021Y-112771373D02*
X157611926Y-112771373D01*
X157611926Y-112771373D02*
X157516688Y-112723754D01*
X157516688Y-112723754D02*
X157469069Y-112628515D01*
X157469069Y-112628515D02*
X157469069Y-112533277D01*
X157469069Y-112533277D02*
X157516688Y-112438039D01*
X157516688Y-112438039D02*
X157611926Y-112390420D01*
X157611926Y-112390420D02*
X157850021Y-112390420D01*
X157850021Y-112390420D02*
X157945259Y-112342801D01*
X158421450Y-112771373D02*
X158421450Y-111771373D01*
X158421450Y-112152325D02*
X158516688Y-112104706D01*
X158516688Y-112104706D02*
X158707164Y-112104706D01*
X158707164Y-112104706D02*
X158802402Y-112152325D01*
X158802402Y-112152325D02*
X158850021Y-112199944D01*
X158850021Y-112199944D02*
X158897640Y-112295182D01*
X158897640Y-112295182D02*
X158897640Y-112580896D01*
X158897640Y-112580896D02*
X158850021Y-112676134D01*
X158850021Y-112676134D02*
X158802402Y-112723754D01*
X158802402Y-112723754D02*
X158707164Y-112771373D01*
X158707164Y-112771373D02*
X158516688Y-112771373D01*
X158516688Y-112771373D02*
X158421450Y-112723754D01*
X159326212Y-112676134D02*
X159373831Y-112723754D01*
X159373831Y-112723754D02*
X159326212Y-112771373D01*
X159326212Y-112771373D02*
X159278593Y-112723754D01*
X159278593Y-112723754D02*
X159326212Y-112676134D01*
X159326212Y-112676134D02*
X159326212Y-112771373D01*
X160230973Y-112723754D02*
X160135735Y-112771373D01*
X160135735Y-112771373D02*
X159945259Y-112771373D01*
X159945259Y-112771373D02*
X159850021Y-112723754D01*
X159850021Y-112723754D02*
X159802402Y-112676134D01*
X159802402Y-112676134D02*
X159754783Y-112580896D01*
X159754783Y-112580896D02*
X159754783Y-112295182D01*
X159754783Y-112295182D02*
X159802402Y-112199944D01*
X159802402Y-112199944D02*
X159850021Y-112152325D01*
X159850021Y-112152325D02*
X159945259Y-112104706D01*
X159945259Y-112104706D02*
X160135735Y-112104706D01*
X160135735Y-112104706D02*
X160230973Y-112152325D01*
X160802402Y-112771373D02*
X160707164Y-112723754D01*
X160707164Y-112723754D02*
X160659545Y-112676134D01*
X160659545Y-112676134D02*
X160611926Y-112580896D01*
X160611926Y-112580896D02*
X160611926Y-112295182D01*
X160611926Y-112295182D02*
X160659545Y-112199944D01*
X160659545Y-112199944D02*
X160707164Y-112152325D01*
X160707164Y-112152325D02*
X160802402Y-112104706D01*
X160802402Y-112104706D02*
X160945259Y-112104706D01*
X160945259Y-112104706D02*
X161040497Y-112152325D01*
X161040497Y-112152325D02*
X161088116Y-112199944D01*
X161088116Y-112199944D02*
X161135735Y-112295182D01*
X161135735Y-112295182D02*
X161135735Y-112580896D01*
X161135735Y-112580896D02*
X161088116Y-112676134D01*
X161088116Y-112676134D02*
X161040497Y-112723754D01*
X161040497Y-112723754D02*
X160945259Y-112771373D01*
X160945259Y-112771373D02*
X160802402Y-112771373D01*
X161564307Y-112771373D02*
X161564307Y-112104706D01*
X161564307Y-112199944D02*
X161611926Y-112152325D01*
X161611926Y-112152325D02*
X161707164Y-112104706D01*
X161707164Y-112104706D02*
X161850021Y-112104706D01*
X161850021Y-112104706D02*
X161945259Y-112152325D01*
X161945259Y-112152325D02*
X161992878Y-112247563D01*
X161992878Y-112247563D02*
X161992878Y-112771373D01*
X161992878Y-112247563D02*
X162040497Y-112152325D01*
X162040497Y-112152325D02*
X162135735Y-112104706D01*
X162135735Y-112104706D02*
X162278592Y-112104706D01*
X162278592Y-112104706D02*
X162373831Y-112152325D01*
X162373831Y-112152325D02*
X162421450Y-112247563D01*
X162421450Y-112247563D02*
X162421450Y-112771373D01*
D10*
X137496779Y-103501819D02*
X137496779Y-102501819D01*
X137496779Y-102501819D02*
X137734874Y-102501819D01*
X137734874Y-102501819D02*
X137877731Y-102549438D01*
X137877731Y-102549438D02*
X137972969Y-102644676D01*
X137972969Y-102644676D02*
X138020588Y-102739914D01*
X138020588Y-102739914D02*
X138068207Y-102930390D01*
X138068207Y-102930390D02*
X138068207Y-103073247D01*
X138068207Y-103073247D02*
X138020588Y-103263723D01*
X138020588Y-103263723D02*
X137972969Y-103358961D01*
X137972969Y-103358961D02*
X137877731Y-103454200D01*
X137877731Y-103454200D02*
X137734874Y-103501819D01*
X137734874Y-103501819D02*
X137496779Y-103501819D01*
X138925350Y-102835152D02*
X138925350Y-103501819D01*
X138687255Y-102454200D02*
X138449160Y-103168485D01*
X138449160Y-103168485D02*
X139068207Y-103168485D01*
X137496779Y-95881819D02*
X137496779Y-94881819D01*
X137496779Y-94881819D02*
X137734874Y-94881819D01*
X137734874Y-94881819D02*
X137877731Y-94929438D01*
X137877731Y-94929438D02*
X137972969Y-95024676D01*
X137972969Y-95024676D02*
X138020588Y-95119914D01*
X138020588Y-95119914D02*
X138068207Y-95310390D01*
X138068207Y-95310390D02*
X138068207Y-95453247D01*
X138068207Y-95453247D02*
X138020588Y-95643723D01*
X138020588Y-95643723D02*
X137972969Y-95738961D01*
X137972969Y-95738961D02*
X137877731Y-95834200D01*
X137877731Y-95834200D02*
X137734874Y-95881819D01*
X137734874Y-95881819D02*
X137496779Y-95881819D01*
X139020588Y-95881819D02*
X138449160Y-95881819D01*
X138734874Y-95881819D02*
X138734874Y-94881819D01*
X138734874Y-94881819D02*
X138639636Y-95024676D01*
X138639636Y-95024676D02*
X138544398Y-95119914D01*
X138544398Y-95119914D02*
X138449160Y-95167533D01*
X137496779Y-98421819D02*
X137496779Y-97421819D01*
X137496779Y-97421819D02*
X137734874Y-97421819D01*
X137734874Y-97421819D02*
X137877731Y-97469438D01*
X137877731Y-97469438D02*
X137972969Y-97564676D01*
X137972969Y-97564676D02*
X138020588Y-97659914D01*
X138020588Y-97659914D02*
X138068207Y-97850390D01*
X138068207Y-97850390D02*
X138068207Y-97993247D01*
X138068207Y-97993247D02*
X138020588Y-98183723D01*
X138020588Y-98183723D02*
X137972969Y-98278961D01*
X137972969Y-98278961D02*
X137877731Y-98374200D01*
X137877731Y-98374200D02*
X137734874Y-98421819D01*
X137734874Y-98421819D02*
X137496779Y-98421819D01*
X138449160Y-97517057D02*
X138496779Y-97469438D01*
X138496779Y-97469438D02*
X138592017Y-97421819D01*
X138592017Y-97421819D02*
X138830112Y-97421819D01*
X138830112Y-97421819D02*
X138925350Y-97469438D01*
X138925350Y-97469438D02*
X138972969Y-97517057D01*
X138972969Y-97517057D02*
X139020588Y-97612295D01*
X139020588Y-97612295D02*
X139020588Y-97707533D01*
X139020588Y-97707533D02*
X138972969Y-97850390D01*
X138972969Y-97850390D02*
X138401541Y-98421819D01*
X138401541Y-98421819D02*
X139020588Y-98421819D01*
X166357493Y-113280771D02*
X166309874Y-113233152D01*
X166309874Y-113233152D02*
X166214636Y-113090295D01*
X166214636Y-113090295D02*
X166167017Y-112995057D01*
X166167017Y-112995057D02*
X166119398Y-112852200D01*
X166119398Y-112852200D02*
X166071779Y-112614104D01*
X166071779Y-112614104D02*
X166071779Y-112423628D01*
X166071779Y-112423628D02*
X166119398Y-112185533D01*
X166119398Y-112185533D02*
X166167017Y-112042676D01*
X166167017Y-112042676D02*
X166214636Y-111947438D01*
X166214636Y-111947438D02*
X166309874Y-111804580D01*
X166309874Y-111804580D02*
X166357493Y-111756961D01*
X166738446Y-112376009D02*
X167071779Y-112376009D01*
X167214636Y-112899819D02*
X166738446Y-112899819D01*
X166738446Y-112899819D02*
X166738446Y-111899819D01*
X166738446Y-111899819D02*
X167214636Y-111899819D01*
X167643208Y-112899819D02*
X167643208Y-111899819D01*
X167643208Y-111899819D02*
X168214636Y-112899819D01*
X168214636Y-112899819D02*
X168214636Y-111899819D01*
X168595589Y-113280771D02*
X168643208Y-113233152D01*
X168643208Y-113233152D02*
X168738446Y-113090295D01*
X168738446Y-113090295D02*
X168786065Y-112995057D01*
X168786065Y-112995057D02*
X168833684Y-112852200D01*
X168833684Y-112852200D02*
X168881303Y-112614104D01*
X168881303Y-112614104D02*
X168881303Y-112423628D01*
X168881303Y-112423628D02*
X168833684Y-112185533D01*
X168833684Y-112185533D02*
X168786065Y-112042676D01*
X168786065Y-112042676D02*
X168738446Y-111947438D01*
X168738446Y-111947438D02*
X168643208Y-111804580D01*
X168643208Y-111804580D02*
X168595589Y-111756961D01*
X151761819Y-128187220D02*
X150761819Y-128187220D01*
X150761819Y-128187220D02*
X150761819Y-127949125D01*
X150761819Y-127949125D02*
X150809438Y-127806268D01*
X150809438Y-127806268D02*
X150904676Y-127711030D01*
X150904676Y-127711030D02*
X150999914Y-127663411D01*
X150999914Y-127663411D02*
X151190390Y-127615792D01*
X151190390Y-127615792D02*
X151333247Y-127615792D01*
X151333247Y-127615792D02*
X151523723Y-127663411D01*
X151523723Y-127663411D02*
X151618961Y-127711030D01*
X151618961Y-127711030D02*
X151714200Y-127806268D01*
X151714200Y-127806268D02*
X151761819Y-127949125D01*
X151761819Y-127949125D02*
X151761819Y-128187220D01*
X151380866Y-127187220D02*
X151380866Y-126425316D01*
X151761819Y-126806268D02*
X150999914Y-126806268D01*
X137496779Y-113661819D02*
X137496779Y-112661819D01*
X137496779Y-112661819D02*
X137734874Y-112661819D01*
X137734874Y-112661819D02*
X137877731Y-112709438D01*
X137877731Y-112709438D02*
X137972969Y-112804676D01*
X137972969Y-112804676D02*
X138020588Y-112899914D01*
X138020588Y-112899914D02*
X138068207Y-113090390D01*
X138068207Y-113090390D02*
X138068207Y-113233247D01*
X138068207Y-113233247D02*
X138020588Y-113423723D01*
X138020588Y-113423723D02*
X137972969Y-113518961D01*
X137972969Y-113518961D02*
X137877731Y-113614200D01*
X137877731Y-113614200D02*
X137734874Y-113661819D01*
X137734874Y-113661819D02*
X137496779Y-113661819D01*
X138639636Y-113090390D02*
X138544398Y-113042771D01*
X138544398Y-113042771D02*
X138496779Y-112995152D01*
X138496779Y-112995152D02*
X138449160Y-112899914D01*
X138449160Y-112899914D02*
X138449160Y-112852295D01*
X138449160Y-112852295D02*
X138496779Y-112757057D01*
X138496779Y-112757057D02*
X138544398Y-112709438D01*
X138544398Y-112709438D02*
X138639636Y-112661819D01*
X138639636Y-112661819D02*
X138830112Y-112661819D01*
X138830112Y-112661819D02*
X138925350Y-112709438D01*
X138925350Y-112709438D02*
X138972969Y-112757057D01*
X138972969Y-112757057D02*
X139020588Y-112852295D01*
X139020588Y-112852295D02*
X139020588Y-112899914D01*
X139020588Y-112899914D02*
X138972969Y-112995152D01*
X138972969Y-112995152D02*
X138925350Y-113042771D01*
X138925350Y-113042771D02*
X138830112Y-113090390D01*
X138830112Y-113090390D02*
X138639636Y-113090390D01*
X138639636Y-113090390D02*
X138544398Y-113138009D01*
X138544398Y-113138009D02*
X138496779Y-113185628D01*
X138496779Y-113185628D02*
X138449160Y-113280866D01*
X138449160Y-113280866D02*
X138449160Y-113471342D01*
X138449160Y-113471342D02*
X138496779Y-113566580D01*
X138496779Y-113566580D02*
X138544398Y-113614200D01*
X138544398Y-113614200D02*
X138639636Y-113661819D01*
X138639636Y-113661819D02*
X138830112Y-113661819D01*
X138830112Y-113661819D02*
X138925350Y-113614200D01*
X138925350Y-113614200D02*
X138972969Y-113566580D01*
X138972969Y-113566580D02*
X139020588Y-113471342D01*
X139020588Y-113471342D02*
X139020588Y-113280866D01*
X139020588Y-113280866D02*
X138972969Y-113185628D01*
X138972969Y-113185628D02*
X138925350Y-113138009D01*
X138925350Y-113138009D02*
X138830112Y-113090390D01*
X137496779Y-111121819D02*
X137496779Y-110121819D01*
X137496779Y-110121819D02*
X137734874Y-110121819D01*
X137734874Y-110121819D02*
X137877731Y-110169438D01*
X137877731Y-110169438D02*
X137972969Y-110264676D01*
X137972969Y-110264676D02*
X138020588Y-110359914D01*
X138020588Y-110359914D02*
X138068207Y-110550390D01*
X138068207Y-110550390D02*
X138068207Y-110693247D01*
X138068207Y-110693247D02*
X138020588Y-110883723D01*
X138020588Y-110883723D02*
X137972969Y-110978961D01*
X137972969Y-110978961D02*
X137877731Y-111074200D01*
X137877731Y-111074200D02*
X137734874Y-111121819D01*
X137734874Y-111121819D02*
X137496779Y-111121819D01*
X138401541Y-110121819D02*
X139068207Y-110121819D01*
X139068207Y-110121819D02*
X138639636Y-111121819D01*
X168398771Y-109105506D02*
X168351152Y-109153125D01*
X168351152Y-109153125D02*
X168208295Y-109248363D01*
X168208295Y-109248363D02*
X168113057Y-109295982D01*
X168113057Y-109295982D02*
X167970200Y-109343601D01*
X167970200Y-109343601D02*
X167732104Y-109391220D01*
X167732104Y-109391220D02*
X167541628Y-109391220D01*
X167541628Y-109391220D02*
X167303533Y-109343601D01*
X167303533Y-109343601D02*
X167160676Y-109295982D01*
X167160676Y-109295982D02*
X167065438Y-109248363D01*
X167065438Y-109248363D02*
X166922580Y-109153125D01*
X166922580Y-109153125D02*
X166874961Y-109105506D01*
X168017819Y-108724553D02*
X167017819Y-108724553D01*
X167017819Y-108724553D02*
X167017819Y-108486458D01*
X167017819Y-108486458D02*
X167065438Y-108343601D01*
X167065438Y-108343601D02*
X167160676Y-108248363D01*
X167160676Y-108248363D02*
X167255914Y-108200744D01*
X167255914Y-108200744D02*
X167446390Y-108153125D01*
X167446390Y-108153125D02*
X167589247Y-108153125D01*
X167589247Y-108153125D02*
X167779723Y-108200744D01*
X167779723Y-108200744D02*
X167874961Y-108248363D01*
X167874961Y-108248363D02*
X167970200Y-108343601D01*
X167970200Y-108343601D02*
X168017819Y-108486458D01*
X168017819Y-108486458D02*
X168017819Y-108724553D01*
X167113057Y-107772172D02*
X167065438Y-107724553D01*
X167065438Y-107724553D02*
X167017819Y-107629315D01*
X167017819Y-107629315D02*
X167017819Y-107391220D01*
X167017819Y-107391220D02*
X167065438Y-107295982D01*
X167065438Y-107295982D02*
X167113057Y-107248363D01*
X167113057Y-107248363D02*
X167208295Y-107200744D01*
X167208295Y-107200744D02*
X167303533Y-107200744D01*
X167303533Y-107200744D02*
X167446390Y-107248363D01*
X167446390Y-107248363D02*
X168017819Y-107819791D01*
X168017819Y-107819791D02*
X168017819Y-107200744D01*
X168398771Y-106867410D02*
X168351152Y-106819791D01*
X168351152Y-106819791D02*
X168208295Y-106724553D01*
X168208295Y-106724553D02*
X168113057Y-106676934D01*
X168113057Y-106676934D02*
X167970200Y-106629315D01*
X167970200Y-106629315D02*
X167732104Y-106581696D01*
X167732104Y-106581696D02*
X167541628Y-106581696D01*
X167541628Y-106581696D02*
X167303533Y-106629315D01*
X167303533Y-106629315D02*
X167160676Y-106676934D01*
X167160676Y-106676934D02*
X167065438Y-106724553D01*
X167065438Y-106724553D02*
X166922580Y-106819791D01*
X166922580Y-106819791D02*
X166874961Y-106867410D01*
X137401541Y-92341819D02*
X138020588Y-92341819D01*
X138020588Y-92341819D02*
X137687255Y-92722771D01*
X137687255Y-92722771D02*
X137830112Y-92722771D01*
X137830112Y-92722771D02*
X137925350Y-92770390D01*
X137925350Y-92770390D02*
X137972969Y-92818009D01*
X137972969Y-92818009D02*
X138020588Y-92913247D01*
X138020588Y-92913247D02*
X138020588Y-93151342D01*
X138020588Y-93151342D02*
X137972969Y-93246580D01*
X137972969Y-93246580D02*
X137925350Y-93294200D01*
X137925350Y-93294200D02*
X137830112Y-93341819D01*
X137830112Y-93341819D02*
X137544398Y-93341819D01*
X137544398Y-93341819D02*
X137449160Y-93294200D01*
X137449160Y-93294200D02*
X137401541Y-93246580D01*
X138306303Y-92341819D02*
X138639636Y-93341819D01*
X138639636Y-93341819D02*
X138972969Y-92341819D01*
X139211065Y-92341819D02*
X139830112Y-92341819D01*
X139830112Y-92341819D02*
X139496779Y-92722771D01*
X139496779Y-92722771D02*
X139639636Y-92722771D01*
X139639636Y-92722771D02*
X139734874Y-92770390D01*
X139734874Y-92770390D02*
X139782493Y-92818009D01*
X139782493Y-92818009D02*
X139830112Y-92913247D01*
X139830112Y-92913247D02*
X139830112Y-93151342D01*
X139830112Y-93151342D02*
X139782493Y-93246580D01*
X139782493Y-93246580D02*
X139734874Y-93294200D01*
X139734874Y-93294200D02*
X139639636Y-93341819D01*
X139639636Y-93341819D02*
X139353922Y-93341819D01*
X139353922Y-93341819D02*
X139258684Y-93294200D01*
X139258684Y-93294200D02*
X139211065Y-93246580D01*
X137496779Y-108581819D02*
X137496779Y-107581819D01*
X137496779Y-107581819D02*
X137734874Y-107581819D01*
X137734874Y-107581819D02*
X137877731Y-107629438D01*
X137877731Y-107629438D02*
X137972969Y-107724676D01*
X137972969Y-107724676D02*
X138020588Y-107819914D01*
X138020588Y-107819914D02*
X138068207Y-108010390D01*
X138068207Y-108010390D02*
X138068207Y-108153247D01*
X138068207Y-108153247D02*
X138020588Y-108343723D01*
X138020588Y-108343723D02*
X137972969Y-108438961D01*
X137972969Y-108438961D02*
X137877731Y-108534200D01*
X137877731Y-108534200D02*
X137734874Y-108581819D01*
X137734874Y-108581819D02*
X137496779Y-108581819D01*
X138925350Y-107581819D02*
X138734874Y-107581819D01*
X138734874Y-107581819D02*
X138639636Y-107629438D01*
X138639636Y-107629438D02*
X138592017Y-107677057D01*
X138592017Y-107677057D02*
X138496779Y-107819914D01*
X138496779Y-107819914D02*
X138449160Y-108010390D01*
X138449160Y-108010390D02*
X138449160Y-108391342D01*
X138449160Y-108391342D02*
X138496779Y-108486580D01*
X138496779Y-108486580D02*
X138544398Y-108534200D01*
X138544398Y-108534200D02*
X138639636Y-108581819D01*
X138639636Y-108581819D02*
X138830112Y-108581819D01*
X138830112Y-108581819D02*
X138925350Y-108534200D01*
X138925350Y-108534200D02*
X138972969Y-108486580D01*
X138972969Y-108486580D02*
X139020588Y-108391342D01*
X139020588Y-108391342D02*
X139020588Y-108153247D01*
X139020588Y-108153247D02*
X138972969Y-108058009D01*
X138972969Y-108058009D02*
X138925350Y-108010390D01*
X138925350Y-108010390D02*
X138830112Y-107962771D01*
X138830112Y-107962771D02*
X138639636Y-107962771D01*
X138639636Y-107962771D02*
X138544398Y-108010390D01*
X138544398Y-108010390D02*
X138496779Y-108058009D01*
X138496779Y-108058009D02*
X138449160Y-108153247D01*
D11*
X142006619Y-116357931D02*
X142006619Y-116024598D01*
X142530429Y-115881741D02*
X142530429Y-116357931D01*
X142530429Y-116357931D02*
X141530429Y-116357931D01*
X141530429Y-116357931D02*
X141530429Y-115881741D01*
X142482810Y-115500788D02*
X142530429Y-115357931D01*
X142530429Y-115357931D02*
X142530429Y-115119836D01*
X142530429Y-115119836D02*
X142482810Y-115024598D01*
X142482810Y-115024598D02*
X142435190Y-114976979D01*
X142435190Y-114976979D02*
X142339952Y-114929360D01*
X142339952Y-114929360D02*
X142244714Y-114929360D01*
X142244714Y-114929360D02*
X142149476Y-114976979D01*
X142149476Y-114976979D02*
X142101857Y-115024598D01*
X142101857Y-115024598D02*
X142054238Y-115119836D01*
X142054238Y-115119836D02*
X142006619Y-115310312D01*
X142006619Y-115310312D02*
X141959000Y-115405550D01*
X141959000Y-115405550D02*
X141911381Y-115453169D01*
X141911381Y-115453169D02*
X141816143Y-115500788D01*
X141816143Y-115500788D02*
X141720905Y-115500788D01*
X141720905Y-115500788D02*
X141625667Y-115453169D01*
X141625667Y-115453169D02*
X141578048Y-115405550D01*
X141578048Y-115405550D02*
X141530429Y-115310312D01*
X141530429Y-115310312D02*
X141530429Y-115072217D01*
X141530429Y-115072217D02*
X141578048Y-114929360D01*
X142530429Y-114500788D02*
X141530429Y-114500788D01*
X141530429Y-114500788D02*
X141530429Y-114119836D01*
X141530429Y-114119836D02*
X141578048Y-114024598D01*
X141578048Y-114024598D02*
X141625667Y-113976979D01*
X141625667Y-113976979D02*
X141720905Y-113929360D01*
X141720905Y-113929360D02*
X141863762Y-113929360D01*
X141863762Y-113929360D02*
X141959000Y-113976979D01*
X141959000Y-113976979D02*
X142006619Y-114024598D01*
X142006619Y-114024598D02*
X142054238Y-114119836D01*
X142054238Y-114119836D02*
X142054238Y-114500788D01*
X141530429Y-113596026D02*
X141530429Y-112976979D01*
X141530429Y-112976979D02*
X141911381Y-113310312D01*
X141911381Y-113310312D02*
X141911381Y-113167455D01*
X141911381Y-113167455D02*
X141959000Y-113072217D01*
X141959000Y-113072217D02*
X142006619Y-113024598D01*
X142006619Y-113024598D02*
X142101857Y-112976979D01*
X142101857Y-112976979D02*
X142339952Y-112976979D01*
X142339952Y-112976979D02*
X142435190Y-113024598D01*
X142435190Y-113024598D02*
X142482810Y-113072217D01*
X142482810Y-113072217D02*
X142530429Y-113167455D01*
X142530429Y-113167455D02*
X142530429Y-113453169D01*
X142530429Y-113453169D02*
X142482810Y-113548407D01*
X142482810Y-113548407D02*
X142435190Y-113596026D01*
X141625667Y-112596026D02*
X141578048Y-112548407D01*
X141578048Y-112548407D02*
X141530429Y-112453169D01*
X141530429Y-112453169D02*
X141530429Y-112215074D01*
X141530429Y-112215074D02*
X141578048Y-112119836D01*
X141578048Y-112119836D02*
X141625667Y-112072217D01*
X141625667Y-112072217D02*
X141720905Y-112024598D01*
X141720905Y-112024598D02*
X141816143Y-112024598D01*
X141816143Y-112024598D02*
X141959000Y-112072217D01*
X141959000Y-112072217D02*
X142530429Y-112643645D01*
X142530429Y-112643645D02*
X142530429Y-112024598D01*
X142482810Y-110881740D02*
X142530429Y-110738883D01*
X142530429Y-110738883D02*
X142530429Y-110500788D01*
X142530429Y-110500788D02*
X142482810Y-110405550D01*
X142482810Y-110405550D02*
X142435190Y-110357931D01*
X142435190Y-110357931D02*
X142339952Y-110310312D01*
X142339952Y-110310312D02*
X142244714Y-110310312D01*
X142244714Y-110310312D02*
X142149476Y-110357931D01*
X142149476Y-110357931D02*
X142101857Y-110405550D01*
X142101857Y-110405550D02*
X142054238Y-110500788D01*
X142054238Y-110500788D02*
X142006619Y-110691264D01*
X142006619Y-110691264D02*
X141959000Y-110786502D01*
X141959000Y-110786502D02*
X141911381Y-110834121D01*
X141911381Y-110834121D02*
X141816143Y-110881740D01*
X141816143Y-110881740D02*
X141720905Y-110881740D01*
X141720905Y-110881740D02*
X141625667Y-110834121D01*
X141625667Y-110834121D02*
X141578048Y-110786502D01*
X141578048Y-110786502D02*
X141530429Y-110691264D01*
X141530429Y-110691264D02*
X141530429Y-110453169D01*
X141530429Y-110453169D02*
X141578048Y-110310312D01*
X141863762Y-110024597D02*
X141863762Y-109643645D01*
X141530429Y-109881740D02*
X142387571Y-109881740D01*
X142387571Y-109881740D02*
X142482810Y-109834121D01*
X142482810Y-109834121D02*
X142530429Y-109738883D01*
X142530429Y-109738883D02*
X142530429Y-109643645D01*
X142530429Y-108881740D02*
X142006619Y-108881740D01*
X142006619Y-108881740D02*
X141911381Y-108929359D01*
X141911381Y-108929359D02*
X141863762Y-109024597D01*
X141863762Y-109024597D02*
X141863762Y-109215073D01*
X141863762Y-109215073D02*
X141911381Y-109310311D01*
X142482810Y-108881740D02*
X142530429Y-108976978D01*
X142530429Y-108976978D02*
X142530429Y-109215073D01*
X142530429Y-109215073D02*
X142482810Y-109310311D01*
X142482810Y-109310311D02*
X142387571Y-109357930D01*
X142387571Y-109357930D02*
X142292333Y-109357930D01*
X142292333Y-109357930D02*
X142197095Y-109310311D01*
X142197095Y-109310311D02*
X142149476Y-109215073D01*
X142149476Y-109215073D02*
X142149476Y-108976978D01*
X142149476Y-108976978D02*
X142101857Y-108881740D01*
X141863762Y-108405549D02*
X142530429Y-108405549D01*
X141959000Y-108405549D02*
X141911381Y-108357930D01*
X141911381Y-108357930D02*
X141863762Y-108262692D01*
X141863762Y-108262692D02*
X141863762Y-108119835D01*
X141863762Y-108119835D02*
X141911381Y-108024597D01*
X141911381Y-108024597D02*
X142006619Y-107976978D01*
X142006619Y-107976978D02*
X142530429Y-107976978D01*
X142530429Y-107072216D02*
X141530429Y-107072216D01*
X142482810Y-107072216D02*
X142530429Y-107167454D01*
X142530429Y-107167454D02*
X142530429Y-107357930D01*
X142530429Y-107357930D02*
X142482810Y-107453168D01*
X142482810Y-107453168D02*
X142435190Y-107500787D01*
X142435190Y-107500787D02*
X142339952Y-107548406D01*
X142339952Y-107548406D02*
X142054238Y-107548406D01*
X142054238Y-107548406D02*
X141959000Y-107500787D01*
X141959000Y-107500787D02*
X141911381Y-107453168D01*
X141911381Y-107453168D02*
X141863762Y-107357930D01*
X141863762Y-107357930D02*
X141863762Y-107167454D01*
X141863762Y-107167454D02*
X141911381Y-107072216D01*
X142530429Y-106167454D02*
X142006619Y-106167454D01*
X142006619Y-106167454D02*
X141911381Y-106215073D01*
X141911381Y-106215073D02*
X141863762Y-106310311D01*
X141863762Y-106310311D02*
X141863762Y-106500787D01*
X141863762Y-106500787D02*
X141911381Y-106596025D01*
X142482810Y-106167454D02*
X142530429Y-106262692D01*
X142530429Y-106262692D02*
X142530429Y-106500787D01*
X142530429Y-106500787D02*
X142482810Y-106596025D01*
X142482810Y-106596025D02*
X142387571Y-106643644D01*
X142387571Y-106643644D02*
X142292333Y-106643644D01*
X142292333Y-106643644D02*
X142197095Y-106596025D01*
X142197095Y-106596025D02*
X142149476Y-106500787D01*
X142149476Y-106500787D02*
X142149476Y-106262692D01*
X142149476Y-106262692D02*
X142101857Y-106167454D01*
X142530429Y-105691263D02*
X141863762Y-105691263D01*
X142054238Y-105691263D02*
X141959000Y-105643644D01*
X141959000Y-105643644D02*
X141911381Y-105596025D01*
X141911381Y-105596025D02*
X141863762Y-105500787D01*
X141863762Y-105500787D02*
X141863762Y-105405549D01*
X142530429Y-104643644D02*
X141530429Y-104643644D01*
X142482810Y-104643644D02*
X142530429Y-104738882D01*
X142530429Y-104738882D02*
X142530429Y-104929358D01*
X142530429Y-104929358D02*
X142482810Y-105024596D01*
X142482810Y-105024596D02*
X142435190Y-105072215D01*
X142435190Y-105072215D02*
X142339952Y-105119834D01*
X142339952Y-105119834D02*
X142054238Y-105119834D01*
X142054238Y-105119834D02*
X141959000Y-105072215D01*
X141959000Y-105072215D02*
X141911381Y-105024596D01*
X141911381Y-105024596D02*
X141863762Y-104929358D01*
X141863762Y-104929358D02*
X141863762Y-104738882D01*
X141863762Y-104738882D02*
X141911381Y-104643644D01*
X144140373Y-115786503D02*
X143664182Y-116119836D01*
X144140373Y-116357931D02*
X143140373Y-116357931D01*
X143140373Y-116357931D02*
X143140373Y-115976979D01*
X143140373Y-115976979D02*
X143187992Y-115881741D01*
X143187992Y-115881741D02*
X143235611Y-115834122D01*
X143235611Y-115834122D02*
X143330849Y-115786503D01*
X143330849Y-115786503D02*
X143473706Y-115786503D01*
X143473706Y-115786503D02*
X143568944Y-115834122D01*
X143568944Y-115834122D02*
X143616563Y-115881741D01*
X143616563Y-115881741D02*
X143664182Y-115976979D01*
X143664182Y-115976979D02*
X143664182Y-116357931D01*
X144092754Y-114976979D02*
X144140373Y-115072217D01*
X144140373Y-115072217D02*
X144140373Y-115262693D01*
X144140373Y-115262693D02*
X144092754Y-115357931D01*
X144092754Y-115357931D02*
X143997515Y-115405550D01*
X143997515Y-115405550D02*
X143616563Y-115405550D01*
X143616563Y-115405550D02*
X143521325Y-115357931D01*
X143521325Y-115357931D02*
X143473706Y-115262693D01*
X143473706Y-115262693D02*
X143473706Y-115072217D01*
X143473706Y-115072217D02*
X143521325Y-114976979D01*
X143521325Y-114976979D02*
X143616563Y-114929360D01*
X143616563Y-114929360D02*
X143711801Y-114929360D01*
X143711801Y-114929360D02*
X143807039Y-115405550D01*
X143473706Y-114596026D02*
X144140373Y-114357931D01*
X144140373Y-114357931D02*
X143473706Y-114119836D01*
X144045134Y-113738883D02*
X144092754Y-113691264D01*
X144092754Y-113691264D02*
X144140373Y-113738883D01*
X144140373Y-113738883D02*
X144092754Y-113786502D01*
X144092754Y-113786502D02*
X144045134Y-113738883D01*
X144045134Y-113738883D02*
X144140373Y-113738883D01*
X143854658Y-113310312D02*
X143854658Y-112834122D01*
X144140373Y-113405550D02*
X143140373Y-113072217D01*
X143140373Y-113072217D02*
X144140373Y-112738884D01*
D10*
X164325493Y-131441771D02*
X164277874Y-131394152D01*
X164277874Y-131394152D02*
X164182636Y-131251295D01*
X164182636Y-131251295D02*
X164135017Y-131156057D01*
X164135017Y-131156057D02*
X164087398Y-131013200D01*
X164087398Y-131013200D02*
X164039779Y-130775104D01*
X164039779Y-130775104D02*
X164039779Y-130584628D01*
X164039779Y-130584628D02*
X164087398Y-130346533D01*
X164087398Y-130346533D02*
X164135017Y-130203676D01*
X164135017Y-130203676D02*
X164182636Y-130108438D01*
X164182636Y-130108438D02*
X164277874Y-129965580D01*
X164277874Y-129965580D02*
X164325493Y-129917961D01*
X165039779Y-130537009D02*
X165182636Y-130584628D01*
X165182636Y-130584628D02*
X165230255Y-130632247D01*
X165230255Y-130632247D02*
X165277874Y-130727485D01*
X165277874Y-130727485D02*
X165277874Y-130870342D01*
X165277874Y-130870342D02*
X165230255Y-130965580D01*
X165230255Y-130965580D02*
X165182636Y-131013200D01*
X165182636Y-131013200D02*
X165087398Y-131060819D01*
X165087398Y-131060819D02*
X164706446Y-131060819D01*
X164706446Y-131060819D02*
X164706446Y-130060819D01*
X164706446Y-130060819D02*
X165039779Y-130060819D01*
X165039779Y-130060819D02*
X165135017Y-130108438D01*
X165135017Y-130108438D02*
X165182636Y-130156057D01*
X165182636Y-130156057D02*
X165230255Y-130251295D01*
X165230255Y-130251295D02*
X165230255Y-130346533D01*
X165230255Y-130346533D02*
X165182636Y-130441771D01*
X165182636Y-130441771D02*
X165135017Y-130489390D01*
X165135017Y-130489390D02*
X165039779Y-130537009D01*
X165039779Y-130537009D02*
X164706446Y-130537009D01*
X165896922Y-130060819D02*
X166087398Y-130060819D01*
X166087398Y-130060819D02*
X166182636Y-130108438D01*
X166182636Y-130108438D02*
X166277874Y-130203676D01*
X166277874Y-130203676D02*
X166325493Y-130394152D01*
X166325493Y-130394152D02*
X166325493Y-130727485D01*
X166325493Y-130727485D02*
X166277874Y-130917961D01*
X166277874Y-130917961D02*
X166182636Y-131013200D01*
X166182636Y-131013200D02*
X166087398Y-131060819D01*
X166087398Y-131060819D02*
X165896922Y-131060819D01*
X165896922Y-131060819D02*
X165801684Y-131013200D01*
X165801684Y-131013200D02*
X165706446Y-130917961D01*
X165706446Y-130917961D02*
X165658827Y-130727485D01*
X165658827Y-130727485D02*
X165658827Y-130394152D01*
X165658827Y-130394152D02*
X165706446Y-130203676D01*
X165706446Y-130203676D02*
X165801684Y-130108438D01*
X165801684Y-130108438D02*
X165896922Y-130060819D01*
X166944541Y-130060819D02*
X167135017Y-130060819D01*
X167135017Y-130060819D02*
X167230255Y-130108438D01*
X167230255Y-130108438D02*
X167325493Y-130203676D01*
X167325493Y-130203676D02*
X167373112Y-130394152D01*
X167373112Y-130394152D02*
X167373112Y-130727485D01*
X167373112Y-130727485D02*
X167325493Y-130917961D01*
X167325493Y-130917961D02*
X167230255Y-131013200D01*
X167230255Y-131013200D02*
X167135017Y-131060819D01*
X167135017Y-131060819D02*
X166944541Y-131060819D01*
X166944541Y-131060819D02*
X166849303Y-131013200D01*
X166849303Y-131013200D02*
X166754065Y-130917961D01*
X166754065Y-130917961D02*
X166706446Y-130727485D01*
X166706446Y-130727485D02*
X166706446Y-130394152D01*
X166706446Y-130394152D02*
X166754065Y-130203676D01*
X166754065Y-130203676D02*
X166849303Y-130108438D01*
X166849303Y-130108438D02*
X166944541Y-130060819D01*
X167658827Y-130060819D02*
X168230255Y-130060819D01*
X167944541Y-131060819D02*
X167944541Y-130060819D01*
X168468351Y-131441771D02*
X168515970Y-131394152D01*
X168515970Y-131394152D02*
X168611208Y-131251295D01*
X168611208Y-131251295D02*
X168658827Y-131156057D01*
X168658827Y-131156057D02*
X168706446Y-131013200D01*
X168706446Y-131013200D02*
X168754065Y-130775104D01*
X168754065Y-130775104D02*
X168754065Y-130584628D01*
X168754065Y-130584628D02*
X168706446Y-130346533D01*
X168706446Y-130346533D02*
X168658827Y-130203676D01*
X168658827Y-130203676D02*
X168611208Y-130108438D01*
X168611208Y-130108438D02*
X168515970Y-129965580D01*
X168515970Y-129965580D02*
X168468351Y-129917961D01*
X146300866Y-128187220D02*
X146300866Y-127425316D01*
X146681819Y-127806268D02*
X145919914Y-127806268D01*
X145681819Y-126472935D02*
X145681819Y-126949125D01*
X145681819Y-126949125D02*
X146158009Y-126996744D01*
X146158009Y-126996744D02*
X146110390Y-126949125D01*
X146110390Y-126949125D02*
X146062771Y-126853887D01*
X146062771Y-126853887D02*
X146062771Y-126615792D01*
X146062771Y-126615792D02*
X146110390Y-126520554D01*
X146110390Y-126520554D02*
X146158009Y-126472935D01*
X146158009Y-126472935D02*
X146253247Y-126425316D01*
X146253247Y-126425316D02*
X146491342Y-126425316D01*
X146491342Y-126425316D02*
X146586580Y-126472935D01*
X146586580Y-126472935D02*
X146634200Y-126520554D01*
X146634200Y-126520554D02*
X146681819Y-126615792D01*
X146681819Y-126615792D02*
X146681819Y-126853887D01*
X146681819Y-126853887D02*
X146634200Y-126949125D01*
X146634200Y-126949125D02*
X146586580Y-126996744D01*
X145681819Y-126139601D02*
X146681819Y-125806268D01*
X146681819Y-125806268D02*
X145681819Y-125472935D01*
X138020588Y-115249438D02*
X137925350Y-115201819D01*
X137925350Y-115201819D02*
X137782493Y-115201819D01*
X137782493Y-115201819D02*
X137639636Y-115249438D01*
X137639636Y-115249438D02*
X137544398Y-115344676D01*
X137544398Y-115344676D02*
X137496779Y-115439914D01*
X137496779Y-115439914D02*
X137449160Y-115630390D01*
X137449160Y-115630390D02*
X137449160Y-115773247D01*
X137449160Y-115773247D02*
X137496779Y-115963723D01*
X137496779Y-115963723D02*
X137544398Y-116058961D01*
X137544398Y-116058961D02*
X137639636Y-116154200D01*
X137639636Y-116154200D02*
X137782493Y-116201819D01*
X137782493Y-116201819D02*
X137877731Y-116201819D01*
X137877731Y-116201819D02*
X138020588Y-116154200D01*
X138020588Y-116154200D02*
X138068207Y-116106580D01*
X138068207Y-116106580D02*
X138068207Y-115773247D01*
X138068207Y-115773247D02*
X137877731Y-115773247D01*
X138496779Y-116201819D02*
X138496779Y-115201819D01*
X138496779Y-115201819D02*
X139068207Y-116201819D01*
X139068207Y-116201819D02*
X139068207Y-115201819D01*
X139544398Y-116201819D02*
X139544398Y-115201819D01*
X139544398Y-115201819D02*
X139782493Y-115201819D01*
X139782493Y-115201819D02*
X139925350Y-115249438D01*
X139925350Y-115249438D02*
X140020588Y-115344676D01*
X140020588Y-115344676D02*
X140068207Y-115439914D01*
X140068207Y-115439914D02*
X140115826Y-115630390D01*
X140115826Y-115630390D02*
X140115826Y-115773247D01*
X140115826Y-115773247D02*
X140068207Y-115963723D01*
X140068207Y-115963723D02*
X140020588Y-116058961D01*
X140020588Y-116058961D02*
X139925350Y-116154200D01*
X139925350Y-116154200D02*
X139782493Y-116201819D01*
X139782493Y-116201819D02*
X139544398Y-116201819D01*
X141644810Y-125930819D02*
X141644810Y-124930819D01*
X142692428Y-125835580D02*
X142644809Y-125883200D01*
X142644809Y-125883200D02*
X142501952Y-125930819D01*
X142501952Y-125930819D02*
X142406714Y-125930819D01*
X142406714Y-125930819D02*
X142263857Y-125883200D01*
X142263857Y-125883200D02*
X142168619Y-125787961D01*
X142168619Y-125787961D02*
X142121000Y-125692723D01*
X142121000Y-125692723D02*
X142073381Y-125502247D01*
X142073381Y-125502247D02*
X142073381Y-125359390D01*
X142073381Y-125359390D02*
X142121000Y-125168914D01*
X142121000Y-125168914D02*
X142168619Y-125073676D01*
X142168619Y-125073676D02*
X142263857Y-124978438D01*
X142263857Y-124978438D02*
X142406714Y-124930819D01*
X142406714Y-124930819D02*
X142501952Y-124930819D01*
X142501952Y-124930819D02*
X142644809Y-124978438D01*
X142644809Y-124978438D02*
X142692428Y-125026057D01*
X143644809Y-125930819D02*
X143073381Y-125930819D01*
X143359095Y-125930819D02*
X143359095Y-124930819D01*
X143359095Y-124930819D02*
X143263857Y-125073676D01*
X143263857Y-125073676D02*
X143168619Y-125168914D01*
X143168619Y-125168914D02*
X143073381Y-125216533D01*
X157712580Y-128690666D02*
X157760200Y-128738285D01*
X157760200Y-128738285D02*
X157807819Y-128881142D01*
X157807819Y-128881142D02*
X157807819Y-128976380D01*
X157807819Y-128976380D02*
X157760200Y-129119237D01*
X157760200Y-129119237D02*
X157664961Y-129214475D01*
X157664961Y-129214475D02*
X157569723Y-129262094D01*
X157569723Y-129262094D02*
X157379247Y-129309713D01*
X157379247Y-129309713D02*
X157236390Y-129309713D01*
X157236390Y-129309713D02*
X157045914Y-129262094D01*
X157045914Y-129262094D02*
X156950676Y-129214475D01*
X156950676Y-129214475D02*
X156855438Y-129119237D01*
X156855438Y-129119237D02*
X156807819Y-128976380D01*
X156807819Y-128976380D02*
X156807819Y-128881142D01*
X156807819Y-128881142D02*
X156855438Y-128738285D01*
X156855438Y-128738285D02*
X156903057Y-128690666D01*
X157141152Y-127833523D02*
X157807819Y-127833523D01*
X156760200Y-128071618D02*
X157474485Y-128309713D01*
X157474485Y-128309713D02*
X157474485Y-127690666D01*
X139025333Y-128701580D02*
X138977714Y-128749200D01*
X138977714Y-128749200D02*
X138834857Y-128796819D01*
X138834857Y-128796819D02*
X138739619Y-128796819D01*
X138739619Y-128796819D02*
X138596762Y-128749200D01*
X138596762Y-128749200D02*
X138501524Y-128653961D01*
X138501524Y-128653961D02*
X138453905Y-128558723D01*
X138453905Y-128558723D02*
X138406286Y-128368247D01*
X138406286Y-128368247D02*
X138406286Y-128225390D01*
X138406286Y-128225390D02*
X138453905Y-128034914D01*
X138453905Y-128034914D02*
X138501524Y-127939676D01*
X138501524Y-127939676D02*
X138596762Y-127844438D01*
X138596762Y-127844438D02*
X138739619Y-127796819D01*
X138739619Y-127796819D02*
X138834857Y-127796819D01*
X138834857Y-127796819D02*
X138977714Y-127844438D01*
X138977714Y-127844438D02*
X139025333Y-127892057D01*
X139977714Y-128796819D02*
X139406286Y-128796819D01*
X139692000Y-128796819D02*
X139692000Y-127796819D01*
X139692000Y-127796819D02*
X139596762Y-127939676D01*
X139596762Y-127939676D02*
X139501524Y-128034914D01*
X139501524Y-128034914D02*
X139406286Y-128082533D01*
X141583580Y-97702666D02*
X141631200Y-97750285D01*
X141631200Y-97750285D02*
X141678819Y-97893142D01*
X141678819Y-97893142D02*
X141678819Y-97988380D01*
X141678819Y-97988380D02*
X141631200Y-98131237D01*
X141631200Y-98131237D02*
X141535961Y-98226475D01*
X141535961Y-98226475D02*
X141440723Y-98274094D01*
X141440723Y-98274094D02*
X141250247Y-98321713D01*
X141250247Y-98321713D02*
X141107390Y-98321713D01*
X141107390Y-98321713D02*
X140916914Y-98274094D01*
X140916914Y-98274094D02*
X140821676Y-98226475D01*
X140821676Y-98226475D02*
X140726438Y-98131237D01*
X140726438Y-98131237D02*
X140678819Y-97988380D01*
X140678819Y-97988380D02*
X140678819Y-97893142D01*
X140678819Y-97893142D02*
X140726438Y-97750285D01*
X140726438Y-97750285D02*
X140774057Y-97702666D01*
X140678819Y-96797904D02*
X140678819Y-97274094D01*
X140678819Y-97274094D02*
X141155009Y-97321713D01*
X141155009Y-97321713D02*
X141107390Y-97274094D01*
X141107390Y-97274094D02*
X141059771Y-97178856D01*
X141059771Y-97178856D02*
X141059771Y-96940761D01*
X141059771Y-96940761D02*
X141107390Y-96845523D01*
X141107390Y-96845523D02*
X141155009Y-96797904D01*
X141155009Y-96797904D02*
X141250247Y-96750285D01*
X141250247Y-96750285D02*
X141488342Y-96750285D01*
X141488342Y-96750285D02*
X141583580Y-96797904D01*
X141583580Y-96797904D02*
X141631200Y-96845523D01*
X141631200Y-96845523D02*
X141678819Y-96940761D01*
X141678819Y-96940761D02*
X141678819Y-97178856D01*
X141678819Y-97178856D02*
X141631200Y-97274094D01*
X141631200Y-97274094D02*
X141583580Y-97321713D01*
X134979580Y-120562666D02*
X135027200Y-120610285D01*
X135027200Y-120610285D02*
X135074819Y-120753142D01*
X135074819Y-120753142D02*
X135074819Y-120848380D01*
X135074819Y-120848380D02*
X135027200Y-120991237D01*
X135027200Y-120991237D02*
X134931961Y-121086475D01*
X134931961Y-121086475D02*
X134836723Y-121134094D01*
X134836723Y-121134094D02*
X134646247Y-121181713D01*
X134646247Y-121181713D02*
X134503390Y-121181713D01*
X134503390Y-121181713D02*
X134312914Y-121134094D01*
X134312914Y-121134094D02*
X134217676Y-121086475D01*
X134217676Y-121086475D02*
X134122438Y-120991237D01*
X134122438Y-120991237D02*
X134074819Y-120848380D01*
X134074819Y-120848380D02*
X134074819Y-120753142D01*
X134074819Y-120753142D02*
X134122438Y-120610285D01*
X134122438Y-120610285D02*
X134170057Y-120562666D01*
X134170057Y-120181713D02*
X134122438Y-120134094D01*
X134122438Y-120134094D02*
X134074819Y-120038856D01*
X134074819Y-120038856D02*
X134074819Y-119800761D01*
X134074819Y-119800761D02*
X134122438Y-119705523D01*
X134122438Y-119705523D02*
X134170057Y-119657904D01*
X134170057Y-119657904D02*
X134265295Y-119610285D01*
X134265295Y-119610285D02*
X134360533Y-119610285D01*
X134360533Y-119610285D02*
X134503390Y-119657904D01*
X134503390Y-119657904D02*
X135074819Y-120229332D01*
X135074819Y-120229332D02*
X135074819Y-119610285D01*
X142581333Y-102562819D02*
X142248000Y-102086628D01*
X142009905Y-102562819D02*
X142009905Y-101562819D01*
X142009905Y-101562819D02*
X142390857Y-101562819D01*
X142390857Y-101562819D02*
X142486095Y-101610438D01*
X142486095Y-101610438D02*
X142533714Y-101658057D01*
X142533714Y-101658057D02*
X142581333Y-101753295D01*
X142581333Y-101753295D02*
X142581333Y-101896152D01*
X142581333Y-101896152D02*
X142533714Y-101991390D01*
X142533714Y-101991390D02*
X142486095Y-102039009D01*
X142486095Y-102039009D02*
X142390857Y-102086628D01*
X142390857Y-102086628D02*
X142009905Y-102086628D01*
X142962286Y-101658057D02*
X143009905Y-101610438D01*
X143009905Y-101610438D02*
X143105143Y-101562819D01*
X143105143Y-101562819D02*
X143343238Y-101562819D01*
X143343238Y-101562819D02*
X143438476Y-101610438D01*
X143438476Y-101610438D02*
X143486095Y-101658057D01*
X143486095Y-101658057D02*
X143533714Y-101753295D01*
X143533714Y-101753295D02*
X143533714Y-101848533D01*
X143533714Y-101848533D02*
X143486095Y-101991390D01*
X143486095Y-101991390D02*
X142914667Y-102562819D01*
X142914667Y-102562819D02*
X143533714Y-102562819D01*
X168094819Y-104711166D02*
X167618628Y-105044499D01*
X168094819Y-105282594D02*
X167094819Y-105282594D01*
X167094819Y-105282594D02*
X167094819Y-104901642D01*
X167094819Y-104901642D02*
X167142438Y-104806404D01*
X167142438Y-104806404D02*
X167190057Y-104758785D01*
X167190057Y-104758785D02*
X167285295Y-104711166D01*
X167285295Y-104711166D02*
X167428152Y-104711166D01*
X167428152Y-104711166D02*
X167523390Y-104758785D01*
X167523390Y-104758785D02*
X167571009Y-104806404D01*
X167571009Y-104806404D02*
X167618628Y-104901642D01*
X167618628Y-104901642D02*
X167618628Y-105282594D01*
X168094819Y-103758785D02*
X168094819Y-104330213D01*
X168094819Y-104044499D02*
X167094819Y-104044499D01*
X167094819Y-104044499D02*
X167237676Y-104139737D01*
X167237676Y-104139737D02*
X167332914Y-104234975D01*
X167332914Y-104234975D02*
X167380533Y-104330213D01*
X146010819Y-110060189D02*
X145010819Y-110060189D01*
X145915580Y-109012571D02*
X145963200Y-109060190D01*
X145963200Y-109060190D02*
X146010819Y-109203047D01*
X146010819Y-109203047D02*
X146010819Y-109298285D01*
X146010819Y-109298285D02*
X145963200Y-109441142D01*
X145963200Y-109441142D02*
X145867961Y-109536380D01*
X145867961Y-109536380D02*
X145772723Y-109583999D01*
X145772723Y-109583999D02*
X145582247Y-109631618D01*
X145582247Y-109631618D02*
X145439390Y-109631618D01*
X145439390Y-109631618D02*
X145248914Y-109583999D01*
X145248914Y-109583999D02*
X145153676Y-109536380D01*
X145153676Y-109536380D02*
X145058438Y-109441142D01*
X145058438Y-109441142D02*
X145010819Y-109298285D01*
X145010819Y-109298285D02*
X145010819Y-109203047D01*
X145010819Y-109203047D02*
X145058438Y-109060190D01*
X145058438Y-109060190D02*
X145106057Y-109012571D01*
X145106057Y-108631618D02*
X145058438Y-108583999D01*
X145058438Y-108583999D02*
X145010819Y-108488761D01*
X145010819Y-108488761D02*
X145010819Y-108250666D01*
X145010819Y-108250666D02*
X145058438Y-108155428D01*
X145058438Y-108155428D02*
X145106057Y-108107809D01*
X145106057Y-108107809D02*
X145201295Y-108060190D01*
X145201295Y-108060190D02*
X145296533Y-108060190D01*
X145296533Y-108060190D02*
X145439390Y-108107809D01*
X145439390Y-108107809D02*
X146010819Y-108679237D01*
X146010819Y-108679237D02*
X146010819Y-108060190D01*
X157077580Y-119546666D02*
X157125200Y-119594285D01*
X157125200Y-119594285D02*
X157172819Y-119737142D01*
X157172819Y-119737142D02*
X157172819Y-119832380D01*
X157172819Y-119832380D02*
X157125200Y-119975237D01*
X157125200Y-119975237D02*
X157029961Y-120070475D01*
X157029961Y-120070475D02*
X156934723Y-120118094D01*
X156934723Y-120118094D02*
X156744247Y-120165713D01*
X156744247Y-120165713D02*
X156601390Y-120165713D01*
X156601390Y-120165713D02*
X156410914Y-120118094D01*
X156410914Y-120118094D02*
X156315676Y-120070475D01*
X156315676Y-120070475D02*
X156220438Y-119975237D01*
X156220438Y-119975237D02*
X156172819Y-119832380D01*
X156172819Y-119832380D02*
X156172819Y-119737142D01*
X156172819Y-119737142D02*
X156220438Y-119594285D01*
X156220438Y-119594285D02*
X156268057Y-119546666D01*
X156172819Y-118689523D02*
X156172819Y-118879999D01*
X156172819Y-118879999D02*
X156220438Y-118975237D01*
X156220438Y-118975237D02*
X156268057Y-119022856D01*
X156268057Y-119022856D02*
X156410914Y-119118094D01*
X156410914Y-119118094D02*
X156601390Y-119165713D01*
X156601390Y-119165713D02*
X156982342Y-119165713D01*
X156982342Y-119165713D02*
X157077580Y-119118094D01*
X157077580Y-119118094D02*
X157125200Y-119070475D01*
X157125200Y-119070475D02*
X157172819Y-118975237D01*
X157172819Y-118975237D02*
X157172819Y-118784761D01*
X157172819Y-118784761D02*
X157125200Y-118689523D01*
X157125200Y-118689523D02*
X157077580Y-118641904D01*
X157077580Y-118641904D02*
X156982342Y-118594285D01*
X156982342Y-118594285D02*
X156744247Y-118594285D01*
X156744247Y-118594285D02*
X156649009Y-118641904D01*
X156649009Y-118641904D02*
X156601390Y-118689523D01*
X156601390Y-118689523D02*
X156553771Y-118784761D01*
X156553771Y-118784761D02*
X156553771Y-118975237D01*
X156553771Y-118975237D02*
X156601390Y-119070475D01*
X156601390Y-119070475D02*
X156649009Y-119118094D01*
X156649009Y-119118094D02*
X156744247Y-119165713D01*
X168094819Y-93702094D02*
X167094819Y-93702094D01*
X167094819Y-93702094D02*
X167094819Y-93463999D01*
X167094819Y-93463999D02*
X167142438Y-93321142D01*
X167142438Y-93321142D02*
X167237676Y-93225904D01*
X167237676Y-93225904D02*
X167332914Y-93178285D01*
X167332914Y-93178285D02*
X167523390Y-93130666D01*
X167523390Y-93130666D02*
X167666247Y-93130666D01*
X167666247Y-93130666D02*
X167856723Y-93178285D01*
X167856723Y-93178285D02*
X167951961Y-93225904D01*
X167951961Y-93225904D02*
X168047200Y-93321142D01*
X168047200Y-93321142D02*
X168094819Y-93463999D01*
X168094819Y-93463999D02*
X168094819Y-93702094D01*
X168094819Y-92178285D02*
X168094819Y-92749713D01*
X168094819Y-92463999D02*
X167094819Y-92463999D01*
X167094819Y-92463999D02*
X167237676Y-92559237D01*
X167237676Y-92559237D02*
X167332914Y-92654475D01*
X167332914Y-92654475D02*
X167380533Y-92749713D01*
X144631580Y-97646666D02*
X144679200Y-97694285D01*
X144679200Y-97694285D02*
X144726819Y-97837142D01*
X144726819Y-97837142D02*
X144726819Y-97932380D01*
X144726819Y-97932380D02*
X144679200Y-98075237D01*
X144679200Y-98075237D02*
X144583961Y-98170475D01*
X144583961Y-98170475D02*
X144488723Y-98218094D01*
X144488723Y-98218094D02*
X144298247Y-98265713D01*
X144298247Y-98265713D02*
X144155390Y-98265713D01*
X144155390Y-98265713D02*
X143964914Y-98218094D01*
X143964914Y-98218094D02*
X143869676Y-98170475D01*
X143869676Y-98170475D02*
X143774438Y-98075237D01*
X143774438Y-98075237D02*
X143726819Y-97932380D01*
X143726819Y-97932380D02*
X143726819Y-97837142D01*
X143726819Y-97837142D02*
X143774438Y-97694285D01*
X143774438Y-97694285D02*
X143822057Y-97646666D01*
X143726819Y-97313332D02*
X143726819Y-96694285D01*
X143726819Y-96694285D02*
X144107771Y-97027618D01*
X144107771Y-97027618D02*
X144107771Y-96884761D01*
X144107771Y-96884761D02*
X144155390Y-96789523D01*
X144155390Y-96789523D02*
X144203009Y-96741904D01*
X144203009Y-96741904D02*
X144298247Y-96694285D01*
X144298247Y-96694285D02*
X144536342Y-96694285D01*
X144536342Y-96694285D02*
X144631580Y-96741904D01*
X144631580Y-96741904D02*
X144679200Y-96789523D01*
X144679200Y-96789523D02*
X144726819Y-96884761D01*
X144726819Y-96884761D02*
X144726819Y-97170475D01*
X144726819Y-97170475D02*
X144679200Y-97265713D01*
X144679200Y-97265713D02*
X144631580Y-97313332D01*
D12*
%TO.C,G\u002A\u002A\u002A*%
G36*
X151685666Y-115042442D02*
G01*
X151709226Y-115139175D01*
X151768956Y-115238819D01*
X151771963Y-115242442D01*
X151876998Y-115322289D01*
X152001025Y-115350626D01*
X152128783Y-115333136D01*
X152245012Y-115275502D01*
X152334450Y-115183410D01*
X152381838Y-115062543D01*
X152385666Y-115013858D01*
X152387330Y-114993686D01*
X152397170Y-114977897D01*
X152422458Y-114965953D01*
X152470465Y-114957318D01*
X152548464Y-114951455D01*
X152663727Y-114947829D01*
X152823525Y-114945902D01*
X153035131Y-114945137D01*
X153305817Y-114945000D01*
X153319000Y-114945000D01*
X154252333Y-114945000D01*
X154252333Y-115261666D01*
X154252333Y-115578333D01*
X154652333Y-115578333D01*
X155052333Y-115578333D01*
X155052333Y-115995000D01*
X155052333Y-116411666D01*
X154652333Y-116411666D01*
X154252333Y-116411666D01*
X154252333Y-116828333D01*
X154252333Y-117245000D01*
X154652333Y-117245000D01*
X155052333Y-117245000D01*
X155052333Y-117661666D01*
X155052333Y-118078333D01*
X154652333Y-118078333D01*
X154252333Y-118078333D01*
X154252333Y-118495000D01*
X154252333Y-118911666D01*
X154652333Y-118911666D01*
X155052333Y-118911666D01*
X155052333Y-119328333D01*
X155052333Y-119745000D01*
X154652333Y-119745000D01*
X154252333Y-119745000D01*
X154252333Y-120145000D01*
X154252333Y-120545000D01*
X154652333Y-120545000D01*
X155052333Y-120545000D01*
X155052333Y-120961666D01*
X155052333Y-121378333D01*
X154652333Y-121378333D01*
X154252333Y-121378333D01*
X154252333Y-121611666D01*
X154252333Y-121845000D01*
X152052333Y-121845000D01*
X149852333Y-121845000D01*
X149852333Y-121611666D01*
X149852333Y-121378333D01*
X149469000Y-121378333D01*
X149085666Y-121378333D01*
X149085666Y-120961666D01*
X149085666Y-120545000D01*
X149469000Y-120545000D01*
X149852333Y-120545000D01*
X149852333Y-120128333D01*
X149852333Y-119711666D01*
X149469000Y-119711666D01*
X149085666Y-119711666D01*
X149085666Y-119295000D01*
X149085666Y-118878333D01*
X149469000Y-118878333D01*
X149852333Y-118878333D01*
X149852333Y-118461666D01*
X149852333Y-118045000D01*
X149469000Y-118045000D01*
X149085666Y-118045000D01*
X149085666Y-117628333D01*
X149085666Y-117211666D01*
X149469000Y-117211666D01*
X149852333Y-117211666D01*
X149852333Y-116795000D01*
X149852333Y-116378333D01*
X149469000Y-116378333D01*
X149085666Y-116378333D01*
X149085666Y-115961666D01*
X149085666Y-115545000D01*
X149469000Y-115545000D01*
X149852333Y-115545000D01*
X149852333Y-115245000D01*
X149852333Y-114945000D01*
X150769000Y-114945000D01*
X151685666Y-114945000D01*
X151685666Y-115042442D01*
G37*
D13*
%TO.C,IC1*%
X141914000Y-117494000D02*
X145674000Y-117494000D01*
X141914000Y-124314000D02*
X145674000Y-124314000D01*
X145674000Y-117494000D02*
X145674000Y-118754000D01*
X145674000Y-124314000D02*
X145674000Y-123054000D01*
X140634000Y-117594000D02*
X140394000Y-117264000D01*
X140874000Y-117264000D01*
X140634000Y-117594000D01*
G36*
X140634000Y-117594000D02*
G01*
X140394000Y-117264000D01*
X140874000Y-117264000D01*
X140634000Y-117594000D01*
G37*
%TO.C,C4*%
X156570000Y-125679252D02*
X156570000Y-124256748D01*
X158390000Y-125679252D02*
X158390000Y-124256748D01*
%TO.C,J3*%
X144974000Y-128718000D02*
X146304000Y-128718000D01*
X144974000Y-130048000D02*
X144974000Y-128718000D01*
X147574000Y-128718000D02*
X155254000Y-128718000D01*
X147574000Y-131378000D02*
X147574000Y-128718000D01*
X147574000Y-131378000D02*
X155254000Y-131378000D01*
X155254000Y-131378000D02*
X155254000Y-128718000D01*
%TO.C,C1*%
X139903252Y-125582000D02*
X138480748Y-125582000D01*
X139903252Y-127402000D02*
X138480748Y-127402000D01*
%TO.C,C5*%
X140314000Y-94691252D02*
X140314000Y-93268748D01*
X142134000Y-94691252D02*
X142134000Y-93268748D01*
%TO.C,C2*%
X135756000Y-121107252D02*
X135756000Y-119684748D01*
X137576000Y-121107252D02*
X137576000Y-119684748D01*
%TO.C,R2*%
X142520936Y-99341000D02*
X142975064Y-99341000D01*
X142520936Y-100811000D02*
X142975064Y-100811000D01*
%TO.C,J1*%
X134306000Y-94234000D02*
X134306000Y-117154000D01*
X134306000Y-94234000D02*
X136966000Y-94234000D01*
X134306000Y-117154000D02*
X136966000Y-117154000D01*
X135636000Y-91634000D02*
X136966000Y-91634000D01*
X136966000Y-91634000D02*
X136966000Y-92964000D01*
X136966000Y-94234000D02*
X136966000Y-117154000D01*
%TO.C,SW1*%
X158984000Y-122684000D02*
X159984000Y-122684000D01*
X158984000Y-123684000D02*
X158984000Y-122684000D01*
X160984000Y-124684000D02*
X160984000Y-127284000D01*
X166984000Y-122734000D02*
X161184000Y-122734000D01*
X167084000Y-129234000D02*
X161084000Y-129234000D01*
X167184000Y-124684000D02*
X167184000Y-127284000D01*
%TO.C,R1*%
X166905000Y-101372936D02*
X166905000Y-101827064D01*
X168375000Y-101372936D02*
X168375000Y-101827064D01*
%TO.C,IC2*%
X146856000Y-84784000D02*
X146856000Y-90984000D01*
X146856000Y-84784000D02*
X165256000Y-84784000D01*
X146856000Y-109634000D02*
X146856000Y-110634000D01*
X146856000Y-110634000D02*
X148356000Y-110634000D01*
X165256000Y-84784000D02*
X165256000Y-90984000D01*
X165256000Y-110634000D02*
X163756000Y-110634000D01*
X165256000Y-110634000D02*
X165256000Y-109634000D01*
X146856000Y-91659000D02*
X146356000Y-91659000D01*
X146856000Y-91159000D01*
X146856000Y-91659000D01*
G36*
X146856000Y-91659000D02*
G01*
X146356000Y-91659000D01*
X146856000Y-91159000D01*
X146856000Y-91659000D01*
G37*
%TO.C,C6*%
X156062000Y-116535252D02*
X156062000Y-115112748D01*
X157882000Y-116535252D02*
X157882000Y-115112748D01*
%TO.C,D1*%
X166505000Y-94920000D02*
X166505000Y-98805000D01*
X166505000Y-98805000D02*
X168775000Y-98805000D01*
X168775000Y-98805000D02*
X168775000Y-94920000D01*
%TO.C,SW2*%
X158984000Y-113540000D02*
X159984000Y-113540000D01*
X158984000Y-114540000D02*
X158984000Y-113540000D01*
X160984000Y-115540000D02*
X160984000Y-118140000D01*
X166984000Y-113590000D02*
X161184000Y-113590000D01*
X167084000Y-120090000D02*
X161084000Y-120090000D01*
X167184000Y-115540000D02*
X167184000Y-118140000D01*
%TO.C,C3*%
X143362000Y-94691252D02*
X143362000Y-93268748D01*
X145182000Y-94691252D02*
X145182000Y-93268748D01*
%TD*%
M02*
